# generated from PmQm by Jehee Lee
:FULLY-SPECIFIED
:DEGREES
49
root 14.1229 39.8241 3.97356 -131.069 88.4525 -123.877
RightUpLeg 9.1263 0.156961 0.728092
RightLeg 1.98597 5.86166 -0.658261
RightFoot -2.82076 -0.462817 5.16387
RightToes 4.07452e-010 -1.59028e-015 9.93923e-017
Spine 0.358989 -0.005936160003 4.07446
Spine1 -8.52225 0.25664 -4.22936
HEad -18.6502 -1.54766 1.33195
LeftShoulder1 9.93923e-017 -0 1.22299e-017
LeftArm 24.8421 -16.2205 -106.677
LeftForeArm -160.243 -54.2616 165.851
LeftHand 0.79081 6.57523 25.3987
RightShoulder 1.98785e-016 -4.96962e-017 1.55301e-017
RightArm 23.7845 13.4703 103.22
RightForeArm -113.009 52.8485 -146.015
RightHand 6.91641 -23.2452 -29.624
LeftUpLeg 4.99929 -0.816098 0.816602
LeftLeg 9.33792 -4.10458 3.46886
LeftFoot -6.2156 0.142903 -2.575
LeftToes 1.53707e-010 -1.11459e-010 1.58109e-011
50
root 14.157 39.8171 3.9478 -124.223 88.5426 -116.927
RightUpLeg 9.24077 0.16592 0.701342
RightLeg 2.03305 6.05184 -0.689496
RightFoot -2.88762 -0.464984 5.20254
RightToes 4.07452e-010 -1.59028e-015 9.93923e-017
Spine 0.157224 -0.0762656 3.99515
Spine1 -8.43902 0.169623 -4.13845
HEad -18.6065 -1.38572 1.46535
LeftShoulder1 9.93923e-017 -0 1.22299e-017
LeftArm 24.6838 -16.3045 -106.694
LeftForeArm -159.862 -54.3408 165.747
LeftHand 0.802941 6.60502 25.2478
RightShoulder 1.98785e-016 -4.96962e-017 1.55301e-017
RightArm 23.9736 13.547 103.456
RightForeArm -112.544 52.918 -145.836
RightHand 6.99154 -23.4109 -29.6874
LeftUpLeg 5.18205 -0.784586 0.804151
LeftLeg 9.37942 -3.94931 3.50101
LeftFoot -6.33134 0.14143 -2.59552
LeftToes 1.53707e-010 -1.11459e-010 1.58109e-011
51
root 14.1835 39.8098 3.91754 -113.173 88.6703 -105.793
RightUpLeg 9.27817 0.214115 0.673735
RightLeg 2.12189 6.26769 -0.787388
RightFoot -2.96148 -0.469562 5.2651
RightToes 4.07452e-010 -1.59028e-015 9.93923e-017
Spine -0.3659 -0.0558316 3.79089
Spine1 -7.92354 0.162106 -3.8486
HEad -18.6913 -1.23017 1.55931
LeftShoulder1 9.93923e-017 -0 1.22299e-017
LeftArm 24.605 -16.5615 -106.672
LeftForeArm -160.003 -54.3431 165.757
LeftHand 0.829527 6.67679 25.3777
RightShoulder 1.98785e-016 -4.96962e-017 1.55301e-017
RightArm 24.3249 13.7502 103.568
RightForeArm -111.927 52.9609 -145.688
RightHand 7.04142 -23.4905 -29.7971
LeftUpLeg 5.36484 -0.829527 0.705879
LeftLeg 9.38332 -3.59569 3.5906
LeftFoot -6.42179 0.142487 -2.6411
LeftToes 1.53707e-010 -1.11459e-010 1.58109e-011
52
root 14.2001 39.8051 3.88595 -101.865 88.7183 -94.3922
RightUpLeg 9.34164 0.212408 0.624478
RightLeg 2.16415 6.50454 -0.81561
RightFoot -3.00161 -0.471363 5.297
RightToes 4.07452e-010 -1.59028e-015 9.93923e-017
Spine -0.807029 -0.007317380005 3.73568
Spine1 -7.45022 0.200393 -3.78069
HEad -18.8483 -1.29578 1.61736
LeftShoulder1 9.93923e-017 -0 1.22299e-017
LeftArm 24.779 -16.7668 -106.709
LeftForeArm -159.991 -54.3195 165.778
LeftHand 0.853814 6.7416 25.4631
RightShoulder 1.98785e-016 -4.96962e-017 1.55301e-017
RightArm 24.548 13.9615 103.495
RightForeArm -111.519 52.9849 -145.599
RightHand 7.04613 -23.4491 -29.9168
LeftUpLeg 5.54431 -0.793723 0.655832
LeftLeg 9.36634 -3.36139 3.63685
LeftFoot -6.49487 0.141971 -2.6662
LeftToes 1.53707e-010 -1.11459e-010 1.58109e-011
53
root 14.208 39.8036 3.85744 -94.3719 88.698 -86.8103
RightUpLeg 9.43574 0.181345 0.571747
RightLeg 2.14821 6.71028 -0.786289
RightFoot -3.00367 -0.471169 5.30651
RightToes 4.07452e-010 -1.59028e-015 9.93923e-017
Spine -0.754332 -0.0158633 3.8451
Spine1 -7.56002 0.201015 -3.98232
HEad -18.9484 -1.48629 1.6803
LeftShoulder1 9.93923e-017 -0 1.22299e-017
LeftArm 25.0316 -16.7986 -106.796
LeftForeArm -159.581 -54.292 165.769
LeftHand 0.873085 6.79008 25.2205
RightShoulder 1.98785e-016 -4.96962e-017 1.55301e-017
RightArm 24.5723 14.0103 103.412
RightForeArm -111.597 52.9811 -145.614
RightHand 7.063 -23.4439 -30.0258
LeftUpLeg 5.6972 -0.634935 0.686024
LeftLeg 9.33447 -3.35877 3.60373
LeftFoot -6.55792 0.136405 -2.62918
LeftToes 1.53707e-010 -1.11459e-010 1.58109e-011
54
root 14.2124 39.803 3.83171 -88.4683 88.668 -80.8442
RightUpLeg 9.50728 0.224885 0.569462
RightLeg 2.11053 6.8242 -0.832175
RightFoot -2.98962 -0.47462 5.35306
RightToes 4.07452e-010 -1.59028e-015 9.93923e-017
Spine -0.470749 -0.066964 3.7685
Spine1 -7.95395 0.138269 -3.9377
HEad -19.0625 -1.56631 1.77491
LeftShoulder1 9.93923e-017 -0 1.22299e-017
LeftArm 25.1212 -16.8185 -106.862
LeftForeArm -159.225 -54.2534 165.774
LeftHand 0.896876 6.85003 24.8465
RightShoulder 1.98785e-016 -4.96962e-017 1.55301e-017
RightArm 24.6086 13.9829 103.45
RightForeArm -111.833 52.9477 -145.703
RightHand 7.08874 -23.4844 -30.0826
LeftUpLeg 5.82123 -0.486328 0.69874
LeftLeg 9.27796 -3.35025 3.58211
LeftFoot -6.6063 0.128176 -2.56216
LeftToes 1.53707e-010 -1.11459e-010 1.58109e-011
